#N canvas 0 0 450 300 10;
#X obj 99 89 attributes;
#X obj 143 138 print right;
#X obj 71 161 print left;
#X obj 103 30 bng 15 250 50 0 empty empty empty 17 7 0 10 -262144 -1
-1;
#X connect 0 0 2 0;
#X connect 0 1 1 0;
#X connect 3 0 0 0;
