#N canvas 307 25 444 469 10;
#X obj 70 383 tgl 50 0 empty empty success 17 7 0 10 -258113 -1 -1
0 1;
#X msg 88 225 createSource source;
#X msg 69 250 createListener listener;
#X msg 224 311 setPosition source \$1 \$2 \$3;
#X floatatom 224 271 5 0 0 0 - - -;
#X floatatom 263 271 5 0 0 0 - - -;
#X floatatom 302 271 5 0 0 0 - - -;
#N canvas 0 0 290 211 pack3f 0;
#X obj 79 103 pack f f f;
#X obj 99 73 t b f;
#X obj 144 71 t b f;
#X obj 63 44 inlet;
#X obj 110 41 inlet;
#X obj 162 45 inlet;
#X obj 80 137 outlet;
#X connect 0 0 6 0;
#X connect 1 0 0 0;
#X connect 1 1 0 1;
#X connect 2 0 0 0;
#X connect 2 1 0 2;
#X connect 3 0 0 0;
#X connect 4 0 1 0;
#X connect 5 0 2 0;
#X restore 224 291 pd pack3f;
#X obj 34 62 loadbang;
#X obj 34 85 t b b b;
#X obj 224 117 metro 50;
#X obj 224 61 tgl 50 0 empty empty auto_rotate 17 7 0 10 -258113 -1
-1 1 1;
#X obj 224 148 f 0;
#X obj 274 139 + 5;
#X obj 274 159 % 360;
#X obj 224 228 cos;
#X obj 263 228 sin;
#X obj 224 249 * 10;
#X obj 263 249 * 10;
#X obj 224 175 / 360;
#X obj 224 198 * 6.28319;
#X text 296 197 TWO_PI;
#X text 32 21 Rotates a sound source in a 3D audio scene.;
#X obj 70 359 spatosc SpatdifTranslator 18032 localhost;
#X connect 1 0 23 0;
#X connect 2 0 23 0;
#X connect 3 0 23 0;
#X connect 4 0 7 0;
#X connect 5 0 7 1;
#X connect 6 0 7 2;
#X connect 7 0 3 0;
#X connect 8 0 9 0;
#X connect 9 0 11 0;
#X connect 9 1 2 0;
#X connect 9 2 1 0;
#X connect 10 0 12 0;
#X connect 11 0 10 0;
#X connect 12 0 13 0;
#X connect 12 0 19 0;
#X connect 13 0 14 0;
#X connect 14 0 12 1;
#X connect 15 0 17 0;
#X connect 16 0 18 0;
#X connect 17 0 4 0;
#X connect 18 0 5 0;
#X connect 19 0 20 0;
#X connect 20 0 15 0;
#X connect 20 0 16 0;
#X connect 23 0 0 0;
